<svg id="svg" version="1.1" xmlns="http://www.w3.org/2000/svg" xmlns:xlink="http://www.w3.org/1999/xlink" width="400" height="389.70448045757865" viewBox="0, 0, 400,389.70448045757865"><g id="svgg"><path id="path0" d="M144.592 0.387 C 134.938 1.729,125.958 8.067,121.908 16.397 C 120.322 19.659,2.159 347.136,0.898 351.764 C -1.813 361.717,1.696 373.679,9.481 381.023 C 24.917 395.585,50.214 389.969,58.062 370.238 C 60.719 363.559,177.391 38.977,177.879 36.908 C 182.617 16.812,165.052 -2.459,144.592 0.387 M291.354 0.415 C 282.588 2.134,274.203 8.356,270.328 16.015 C 269.850 16.959,242.710 91.945,210.015 182.650 C 177.321 273.356,150.155 348.702,149.648 350.088 C 146.924 357.521,147.787 367.230,151.808 374.418 C 163.102 394.600,192.158 394.881,204.130 374.924 C 205.838 372.078,324.073 45.223,326.305 37.178 C 331.980 16.723,312.527 -3.740,291.354 0.415 M364.185 1.177 C 355.035 2.972,346.585 9.452,342.846 17.541 C 341.498 20.457,266.796 227.728,265.679 231.649 C 263.842 238.104,264.867 246.594,268.284 253.209 C 279.283 274.504,310.749 274.384,321.544 253.005 C 322.820 250.478,398.434 40.731,399.281 37.369 C 404.418 16.977,385.115 -2.929,364.185 1.177 M98.189 330.021 C 63.102 337.741,68.416 389.472,104.290 389.409 C 128.289 389.367,142.458 362.920,129.234 342.847 C 122.541 332.687,109.867 327.451,98.189 330.021 " stroke="none" fill="#04549c" fill-rule="evenodd"></path><path id="path1" d="" stroke="none" fill="#08549c" fill-rule="evenodd"></path><path id="path2" d="" stroke="none" fill="#08549c" fill-rule="evenodd"></path><path id="path3" d="" stroke="none" fill="#08549c" fill-rule="evenodd"></path><path id="path4" d="" stroke="none" fill="#08549c" fill-rule="evenodd"></path></g></svg>